<svg width="50" height="50" viewBox="0 0 50 50" fill="none" xmlns="http://www.w3.org/2000/svg">
<path d="M46.5972 2.30696C47.0195 1.98393 47.5733 1.90562 48.0708 2.12098C48.6339 2.3657 49 2.93345 49 3.56973V22.57C49 35.041 39.5389 45.2117 27.7407 45.8382L26.5956 45.8676C18.2139 45.8676 11.2307 39.3481 10.1607 30.8905C6.40634 34.0524 4.01291 38.8783 4.01291 44.3013V47.4338C4.01291 48.2952 3.33711 49 2.51115 49C1.68518 49 1 48.2756 1 47.4142V44.2818C1 37.0478 4.623 30.6948 10.0763 27.0827C10.8271 18.2922 17.9042 11.3911 26.5299 11.3911C32.1709 11.3911 37.1361 9.18856 40.7403 6.91754C42.533 5.79181 43.9691 4.6563 44.9452 3.81446C45.4333 3.39353 45.8088 3.04113 46.0622 2.8062C46.1842 2.68873 46.2781 2.59084 46.3438 2.53211L46.4188 2.4538L46.5878 2.29718L46.5972 2.30696ZM45.9965 6.96648C45.0109 7.75938 43.7626 8.68933 42.2984 9.60948C38.666 11.8903 33.5976 14.2201 27.7219 14.5039L26.5393 14.5333L25.8447 14.5529C19.772 14.8759 14.7599 19.369 13.3895 25.3402C15.6046 24.4299 18.0074 23.9306 20.5323 23.9306H29.5428C30.3688 23.9306 31.0446 24.6354 31.0446 25.4969C31.0446 26.3583 30.3688 27.0631 29.5428 27.0631H20.5323C17.8291 27.0631 15.2855 27.7385 13.0328 28.9426C13.1924 36.5779 19.2276 42.7253 26.5956 42.7253L27.5905 42.7057C37.8119 42.1673 46.0059 33.3476 46.0059 22.57V6.97627L45.9965 6.96648Z" fill="white"/>
</svg>
