<svg width="50" height="47" viewBox="0 0 50 47" fill="none" xmlns="http://www.w3.org/2000/svg">
<g clip-path="url(#clip0_704_10)">
<path d="M24.9923 0C26.4278 0 27.7462 0.793125 28.4298 2.05625L49.5235 41.2229C50.1778 42.4371 50.1485 43.9058 49.4454 45.0906C48.7423 46.2754 47.463 47 46.086 47H3.8985C2.52155 47 1.25202 46.2754 0.548892 45.0906C-0.154233 43.9058 -0.183529 42.4371 0.470768 41.2229L21.5645 2.05625C22.2481 0.793125 23.5665 0 25.002 0H24.9923ZM24.9923 3.13333C24.709 3.13333 24.4454 3.29 24.3087 3.54458L3.21491 42.7113C3.08796 42.956 3.08795 43.2498 3.23444 43.4848C3.38092 43.7198 3.63483 43.8667 3.90827 43.8667H46.0958C46.3692 43.8667 46.6231 43.7198 46.7696 43.4848C46.9161 43.2498 46.9161 42.956 46.7891 42.7113L25.6954 3.54458C25.5587 3.29 25.295 3.13333 25.0118 3.13333H24.9923ZM24.9923 39.1667C23.6934 39.1667 22.6485 38.119 22.6485 36.8167C22.6485 35.5144 23.6934 34.4667 24.9923 34.4667C26.2911 34.4667 27.336 35.5144 27.336 36.8167C27.336 38.119 26.2911 39.1667 24.9923 39.1667ZM24.9923 17.2333C26.3204 17.2333 27.3653 18.3692 27.2774 19.691L26.5548 29.8744C26.4962 30.6969 25.8126 31.3333 24.9923 31.3333C24.1719 31.3333 23.4883 30.6969 23.4298 29.8744L22.7071 19.691C22.6094 18.3594 23.6641 17.2333 24.9923 17.2333Z" fill="red"/>
</g>
<defs>
<clipPath id="clip0_704_10">
<rect width="50" height="47" fill="white"/>
</clipPath>
</defs>
</svg>
