<svg width="50" height="50" viewBox="0 0 50 50" fill="none" xmlns="http://www.w3.org/2000/svg">
<path d="M8.2069 10.9375C8.2069 6.62109 11.6789 3.125 15.9655 3.125C20.2522 3.125 23.7241 6.62109 23.7241 10.9375V27.666C23.7241 28.0469 23.8599 28.418 24.1121 28.7012C25.7996 30.6348 26.8276 33.1641 26.8276 35.9375C26.8276 41.9824 21.9688 46.875 15.9655 46.875C9.96228 46.875 5.10345 41.9824 5.10345 35.9375C5.10345 33.1641 6.13147 30.6348 7.81897 28.7012C8.07112 28.418 8.2069 28.0469 8.2069 27.666V10.9375ZM15.9655 0C9.96228 0 5.10345 4.89258 5.10345 10.9375V27.0996C3.16379 29.5117 2 32.5879 2 35.9375C2 43.7012 8.25539 50 15.9655 50C23.6756 50 29.931 43.7012 29.931 35.9375C29.931 32.5879 28.7672 29.5117 26.8276 27.0996V10.9375C26.8276 4.89258 21.9688 0 15.9655 0ZM12.8621 35.9375C12.8621 35.1087 13.189 34.3138 13.771 33.7278C14.3531 33.1417 15.1424 32.8125 15.9655 32.8125C16.7886 32.8125 17.578 33.1417 18.16 33.7278C18.742 34.3138 19.069 35.1087 19.069 35.9375C19.069 36.7663 18.742 37.5612 18.16 38.1472C17.578 38.7333 16.7886 39.0625 15.9655 39.0625C15.1424 39.0625 14.3531 38.7333 13.771 38.1472C13.189 37.5612 12.8621 36.7663 12.8621 35.9375ZM22.1724 35.9375C22.1724 33.0273 20.194 30.5762 17.5172 29.8828V17.1875C17.5172 16.3281 16.819 15.625 15.9655 15.625C15.1121 15.625 14.4138 16.3281 14.4138 17.1875V29.8828C11.7371 30.5762 9.75862 33.0273 9.75862 35.9375C9.75862 39.3848 12.542 42.1875 15.9655 42.1875C19.389 42.1875 22.1724 39.3848 22.1724 35.9375ZM33.0345 3.125C32.181 3.125 31.4828 3.82812 31.4828 4.6875C31.4828 5.54688 32.181 6.25 33.0345 6.25H45.4483C46.3017 6.25 47 5.54688 47 4.6875C47 3.82812 46.3017 3.125 45.4483 3.125H33.0345ZM33.0345 15.625C32.181 15.625 31.4828 16.3281 31.4828 17.1875C31.4828 18.0469 32.181 18.75 33.0345 18.75H45.4483C46.3017 18.75 47 18.0469 47 17.1875C47 16.3281 46.3017 15.625 45.4483 15.625H33.0345ZM36.1379 28.125C35.2845 28.125 34.5862 28.8281 34.5862 29.6875C34.5862 30.5469 35.2845 31.25 36.1379 31.25H45.4483C46.3017 31.25 47 30.5469 47 29.6875C47 28.8281 46.3017 28.125 45.4483 28.125H36.1379Z" fill="white"/>
</svg>
