<svg width="50" height="50" viewBox="0 0 50 50" fill="none" xmlns="http://www.w3.org/2000/svg">
<path d="M24.5 46.9697C15.9823 46.9697 9.08333 40.1894 9.08333 31.8182C9.08333 30.2652 9.68073 28.0114 10.8659 25.2083C12.0221 22.4716 13.6216 19.4792 15.3753 16.553C18.844 10.7386 22.756 5.36932 24.5 3.03977C26.244 5.36932 30.156 10.7386 33.6247 16.553C35.3784 19.4886 36.9779 22.4716 38.1341 25.2083C39.3193 28.0114 39.9167 30.2652 39.9167 31.8182C39.9167 40.1894 33.0177 46.9697 24.5 46.9697ZM6 31.8182C6 41.8561 14.2865 50 24.5 50C34.7135 50 43 41.8561 43 31.8182C43 23.1818 30.4547 5.86174 26.9474 1.18371C26.3789 0.426136 25.4828 0 24.5193 0H24.4807C23.5172 0 22.6211 0.426136 22.0526 1.18371C18.5453 5.86174 6 23.1818 6 31.8182ZM16.7917 31.8182C16.7917 30.9848 16.0979 30.303 15.25 30.303C14.4021 30.303 13.7083 30.9848 13.7083 31.8182C13.7083 37.6799 18.5357 42.4242 24.5 42.4242C25.3479 42.4242 26.0417 41.7424 26.0417 40.9091C26.0417 40.0758 25.3479 39.3939 24.5 39.3939C20.2411 39.3939 16.7917 36.0038 16.7917 31.8182Z" fill="white"/>
</svg>
