<svg width="50" height="50" viewBox="0 0 50 50" fill="none" xmlns="http://www.w3.org/2000/svg">
<path d="M10 18.3107C10 9.96117 16.6656 3.1068 25 3.1068C33.3344 3.1068 40 9.96117 40 18.3107C40 23.1942 37.5719 28.932 34.2438 34.3883C31.0563 39.6117 27.3063 44.1456 25 46.7573C22.6937 44.1456 18.9437 39.6019 15.7562 34.3883C12.4281 28.932 10 23.1942 10 18.3107ZM25 0C15.0625 0 7 8.19418 7 18.3107C7 29.8932 18.2687 43.7767 22.975 49.068C24.0812 50.3107 25.9188 50.3107 27.025 49.068C31.7313 43.7767 43 29.8932 43 18.3107C43 8.19418 34.9375 0 25 0ZM29.5 18.6408C29.5 21.2136 27.4844 23.301 25 23.301C22.5156 23.301 20.5 21.2136 20.5 18.6408C20.5 16.068 22.5156 13.9806 25 13.9806C27.4844 13.9806 29.5 16.068 29.5 18.6408ZM25 10.8738C20.8562 10.8738 17.5 14.3495 17.5 18.6408C17.5 22.932 20.8562 26.4078 25 26.4078C29.1438 26.4078 32.5 22.932 32.5 18.6408C32.5 14.3495 29.1438 10.8738 25 10.8738Z" fill="black"/>
</svg>
