<svg width="50" height="50" viewBox="0 0 50 50" fill="none" xmlns="http://www.w3.org/2000/svg">
<path d="M10.0833 18.3107C10.0833 9.96117 16.9341 3.1068 25.5 3.1068C34.0659 3.1068 40.9167 9.96117 40.9167 18.3107C40.9167 23.1942 38.4211 28.932 35.0005 34.3883C31.7245 39.6117 27.8703 44.1456 25.5 46.7573C23.1297 44.1456 19.2755 39.6019 15.9995 34.3883C12.5789 28.932 10.0833 23.1942 10.0833 18.3107ZM25.5 0C15.2865 0 7 8.19418 7 18.3107C7 29.8932 18.5818 43.7767 23.4187 49.068C24.5557 50.3107 26.4443 50.3107 27.5813 49.068C32.4182 43.7767 44 29.8932 44 18.3107C44 8.19418 35.7135 0 25.5 0ZM30.125 18.6408C30.125 21.2136 28.0534 23.301 25.5 23.301C22.9466 23.301 20.875 21.2136 20.875 18.6408C20.875 16.068 22.9466 13.9806 25.5 13.9806C28.0534 13.9806 30.125 16.068 30.125 18.6408ZM25.5 10.8738C21.2411 10.8738 17.7917 14.3495 17.7917 18.6408C17.7917 22.932 21.2411 26.4078 25.5 26.4078C29.7589 26.4078 33.2083 22.932 33.2083 18.6408C33.2083 14.3495 29.7589 10.8738 25.5 10.8738Z" fill="black"/>
</svg>
