<svg width="50" height="50" viewBox="0 0 50 50" fill="none" xmlns="http://www.w3.org/2000/svg">
<g clip-path="url(#clip0_679_53)">
<path d="M25 3.125C37.0801 3.125 46.875 12.9199 46.875 25C46.875 37.0801 37.0801 46.875 25 46.875C12.9199 46.875 3.125 37.0801 3.125 25C3.125 12.9199 12.9199 3.125 25 3.125ZM25 50C38.8086 50 50 38.8086 50 25C50 11.1914 38.8086 0 25 0C11.1914 0 0 11.1914 0 25C0 38.8086 11.1914 50 25 50ZM25 31.25C26.7285 31.25 28.125 32.6465 28.125 34.375C28.125 36.1035 26.7285 37.5 25 37.5C23.2715 37.5 21.875 36.1035 21.875 34.375C21.875 32.6465 23.2715 31.25 25 31.25ZM25 40.625C28.4473 40.625 31.25 37.8223 31.25 34.375C31.25 31.4648 29.2578 29.0137 26.5625 28.3203V9.375C26.5625 8.51562 25.8594 7.8125 25 7.8125C24.1406 7.8125 23.4375 8.51562 23.4375 9.375V28.3203C20.7422 29.0137 18.75 31.4648 18.75 34.375C18.75 37.8223 21.5527 40.625 25 40.625ZM14.0625 16.4062C15.3613 16.4062 16.4062 15.3613 16.4062 14.0625C16.4062 12.7637 15.3613 11.7188 14.0625 11.7188C12.7637 11.7188 11.7188 12.7637 11.7188 14.0625C11.7188 15.3613 12.7637 16.4062 14.0625 16.4062ZM11.7188 25C11.7188 23.7012 10.6738 22.6562 9.375 22.6562C8.07617 22.6562 7.03125 23.7012 7.03125 25C7.03125 26.2988 8.07617 27.3438 9.375 27.3438C10.6738 27.3438 11.7188 26.2988 11.7188 25ZM40.625 27.3438C41.9238 27.3438 42.9688 26.2988 42.9688 25C42.9688 23.7012 41.9238 22.6562 40.625 22.6562C39.3262 22.6562 38.2812 23.7012 38.2812 25C38.2812 26.2988 39.3262 27.3438 40.625 27.3438ZM38.2812 14.0625C38.2812 12.7637 37.2363 11.7188 35.9375 11.7188C34.6387 11.7188 33.5938 12.7637 33.5938 14.0625C33.5938 15.3613 34.6387 16.4062 35.9375 16.4062C37.2363 16.4062 38.2812 15.3613 38.2812 14.0625Z" fill="white"/>
</g>
<defs>
<clipPath id="clip0_679_53">
<rect width="50" height="50" fill="white"/>
</clipPath>
</defs>
</svg>
