<svg width="50" height="50" viewBox="0 0 50 50" fill="none" xmlns="http://www.w3.org/2000/svg">
<g clip-path="url(#clip0_679_63)">
<path d="M37.5037 20.3145C37.5037 10.8214 29.8076 3.12531 20.3145 3.12531C10.8214 3.12531 3.12531 10.8214 3.12531 20.3145C3.12531 29.8076 10.8214 37.5037 20.3145 37.5037C29.8076 37.5037 37.5037 29.8076 37.5037 20.3145ZM33.5287 35.7457C29.9834 38.7929 25.3638 40.629 20.3145 40.629C9.09269 40.629 0 31.5363 0 20.3145C0 9.09269 9.09269 0 20.3145 0C31.5363 0 40.629 9.09269 40.629 20.3145C40.629 25.3638 38.7929 29.9834 35.7457 33.5287L49.5459 47.3386C50.1514 47.9441 50.1514 48.9403 49.5459 49.5459C48.9403 50.1514 47.9441 50.1514 47.3386 49.5459L33.5287 35.7457Z" fill="black"/>
</g>
<defs>
<clipPath id="clip0_679_63">
<rect width="50" height="50" fill="white"/>
</clipPath>
</defs>
</svg>
