<svg width="50" height="50" viewBox="0 0 50 50" fill="none" xmlns="http://www.w3.org/2000/svg">
<g clip-path="url(#clip0_217_56)">
<path d="M37.5037 20.3145C37.5037 18.0572 37.0591 15.822 36.1952 13.7365C35.3314 11.651 34.0652 9.75606 32.4691 8.1599C30.8729 6.56374 28.978 5.29759 26.8925 4.43375C24.807 3.56992 22.5718 3.1253 20.3145 3.1253C18.0572 3.1253 15.822 3.56992 13.7365 4.43375C11.651 5.29759 9.75606 6.56374 8.1599 8.1599C6.56374 9.75606 5.29759 11.651 4.43375 13.7365C3.56992 15.822 3.12531 18.0572 3.12531 20.3145C3.12531 22.5718 3.56992 24.807 4.43375 26.8925C5.29759 28.978 6.56374 30.8729 8.1599 32.4691C9.75606 34.0652 11.651 35.3314 13.7365 36.1952C15.822 37.0591 18.0572 37.5037 20.3145 37.5037C22.5718 37.5037 24.807 37.0591 26.8925 36.1952C28.978 35.3314 30.8729 34.0652 32.4691 32.4691C34.0652 30.8729 35.3314 28.978 36.1952 26.8925C37.0591 24.807 37.5037 22.5718 37.5037 20.3145ZM33.5287 35.7457C29.9834 38.7929 25.3638 40.629 20.3145 40.629C9.09269 40.629 0 31.5363 0 20.3145C0 9.09269 9.09269 0 20.3145 0C31.5363 0 40.629 9.09269 40.629 20.3145C40.629 25.3638 38.7929 29.9834 35.7457 33.5287L49.5459 47.3386C50.1514 47.9441 50.1514 48.9403 49.5459 49.5459C48.9403 50.1514 47.9441 50.1514 47.3386 49.5459L33.5287 35.7457Z" fill="black"/>
</g>
<defs>
<clipPath id="clip0_217_56">
<rect width="50" height="50" fill="white"/>
</clipPath>
</defs>
</svg>
