<svg width="50" height="50" viewBox="0 0 50 50" fill="none" xmlns="http://www.w3.org/2000/svg">
<path d="M25 8.78571C12.781 8.78571 5.10067 19.9286 2.78356 25.5C5.10067 31.0714 12.781 42.2143 25 42.2143C37.219 42.2143 44.8993 31.0714 47.2164 25.5C44.8993 19.9286 37.219 8.78571 25 8.78571ZM8.2856 13.0165C12.3731 9.20357 17.9879 6 25 6C32.0121 6 37.6269 9.20357 41.7144 13.0165C45.7758 16.8033 48.4921 21.3214 49.7852 24.4292C50.0716 25.117 50.0716 25.883 49.7852 26.5708C48.4921 29.6786 45.7758 34.2054 41.7144 37.9835C37.6269 41.7877 32.0121 45 25 45C17.9879 45 12.3731 41.7964 8.2856 37.9835C4.22416 34.1967 1.50785 29.6786 0.214788 26.5708C-0.0715959 25.883 -0.0715959 25.117 0.214788 24.4292C1.50785 21.3214 4.22416 16.7946 8.2856 13.0165ZM25 33.8571C29.5995 33.8571 33.3312 30.1138 33.3312 25.5C33.3312 21.7306 30.8405 18.5444 27.4212 17.4998C27.6556 18.2658 27.7771 19.0842 27.7771 19.9286C27.7771 24.5424 24.0454 28.2857 19.4459 28.2857C18.6041 28.2857 17.7883 28.1638 17.0246 27.9288C18.0574 31.3587 21.2423 33.8571 25 33.8571ZM13.9091 26.179C13.8918 25.9527 13.8918 25.7263 13.8918 25.5C13.8918 24.4379 14.0393 23.4194 14.317 22.4531C14.3431 22.3748 14.3604 22.2964 14.3864 22.2181C15.4626 18.7011 18.2309 15.9328 21.737 14.8446C22.7697 14.5225 23.8718 14.3571 25.0087 14.3571C25.2256 14.3571 25.4426 14.3658 25.6509 14.3746H25.6856C31.5087 14.7228 36.1169 19.5717 36.1169 25.5C36.1169 31.6547 31.1442 36.6429 25.0087 36.6429C19.0988 36.6429 14.2649 32.0116 13.9178 26.179H13.9091ZM16.6949 24.7775C17.502 25.2388 18.4392 25.5087 19.4372 25.5087C22.5007 25.5087 24.9913 23.0103 24.9913 19.9373C24.9913 18.9362 24.731 17.996 24.2623 17.1864C20.2356 17.5346 17.0333 20.7469 16.6862 24.7862L16.6949 24.7775Z" fill="white"/>
</svg>
