<svg width="50" height="50" viewBox="0 0 50 50" fill="none" xmlns="http://www.w3.org/2000/svg">
<g clip-path="url(#clip0_679_51)">
<path d="M21.7522 26.1413C22.7523 26.4747 23.5336 27.256 23.8565 28.2458L30.0027 46.6757L46.6705 3.33563L3.33438 20.0049L21.7522 26.1413ZM2.13638 16.8898L45.4725 0.220558C46.7017 -0.248266 48.0977 0.0434468 49.0248 0.970675C49.9519 1.8979 50.254 3.29396 49.7748 4.52331L33.1071 47.8634C32.6071 49.1761 31.3257 50.0304 29.9194 49.9992C28.5131 49.9679 27.2734 49.0511 26.8359 47.7176L20.7001 29.3084L2.28223 23.1721C0.948807 22.7241 0.0320816 21.4843 0.000829621 20.0778C-0.0304224 18.6714 0.823799 17.4003 2.13638 16.8898Z" fill="white"/>
</g>
<defs>
<clipPath id="clip0_679_51">
<rect width="50" height="50" fill="white"/>
</clipPath>
</defs>
</svg>
