<svg width="50" height="50" viewBox="0 0 50 50" fill="none" xmlns="http://www.w3.org/2000/svg">
<g clip-path="url(#clip0_679_59)">
<path d="M28.125 1.5625C28.125 2.42188 28.8281 3.125 29.6875 3.125H35.9375C38.5254 3.125 40.625 5.22461 40.625 7.8125C40.625 10.4004 38.5254 12.5 35.9375 12.5H1.5625C0.703125 12.5 0 13.2031 0 14.0625C0 14.9219 0.703125 15.625 1.5625 15.625H35.9375C40.2539 15.625 43.75 12.1289 43.75 7.8125C43.75 3.49609 40.2539 0 35.9375 0H29.6875C28.8281 0 28.125 0.703125 28.125 1.5625ZM34.375 39.0625C34.375 39.9219 35.0781 40.625 35.9375 40.625H41.4062C46.1523 40.625 50 36.7773 50 32.0312C50 27.2852 46.1523 23.4375 41.4062 23.4375H1.5625C0.703125 23.4375 0 24.1406 0 25C0 25.8594 0.703125 26.5625 1.5625 26.5625H41.4062C44.4238 26.5625 46.875 29.0137 46.875 32.0312C46.875 35.0488 44.4238 37.5 41.4062 37.5H35.9375C35.0781 37.5 34.375 38.2031 34.375 39.0625ZM10.9375 50H17.1875C21.5039 50 25 46.5039 25 42.1875C25 37.8711 21.5039 34.375 17.1875 34.375H1.5625C0.703125 34.375 0 35.0781 0 35.9375C0 36.7969 0.703125 37.5 1.5625 37.5H17.1875C19.7754 37.5 21.875 39.5996 21.875 42.1875C21.875 44.7754 19.7754 46.875 17.1875 46.875H10.9375C10.0781 46.875 9.375 47.5781 9.375 48.4375C9.375 49.2969 10.0781 50 10.9375 50Z" fill="white"/>
</g>
<defs>
<clipPath id="clip0_679_59">
<rect width="50" height="50" fill="white"/>
</clipPath>
</defs>
</svg>
